<?xml version="1.0" encoding="UTF-8"?><svg id="PREMIER" xmlns="http://www.w3.org/2000/svg" viewBox="0 0 1133.86 1133.86"><defs><style>.cls-1{fill:#fff;}</style></defs><rect x="-3.85" width="1133.86" height="1133.86"/><g><path class="cls-1" d="M328.92,471.08c81.31-63.39,162.61-126.77,243.92-190.16,37.29,24.58,74.58,49.17,111.88,73.75,79.1,40.34,158.2,80.69,237.3,121.03-69.24-22.87-123.97-40.57-162.6-52.95-17.91-5.74-42.65-13.53-45.74-7.81-3.3,6.12,19.46,25.17,35.09,35.77,20.49,13.89,40.15,21.01,54.02,24.87-41.04-1.11-82.08-2.22-123.12-3.32-3.09-37.92-19.83-57.15-26.78-64.08-41.28-41.14-119.67-28.95-165.55,6.18-25.09,19.21-37.86,43.29-44.1,57.9-38.11-.39-76.22-.78-114.33-1.17Z"/><path class="cls-1" d="M797.24,491.85c-81.31,63.39-162.61,126.77-243.92,190.16-37.29-24.58-74.58-49.17-111.88-73.75-79.1-40.34-158.2-80.69-237.3-121.03,69.24,22.87,123.97,40.57,162.6,52.95,17.91,5.74,42.65,13.53,45.74,7.81,3.3-6.12-19.46-25.17-35.09-35.77-20.49-13.89-40.15-21.01-54.02-24.87,41.04,1.11,82.08,2.22,123.12,3.32,3.09,37.92,19.83,57.15,26.78,64.08,41.28,41.14,119.67,28.95,165.55-6.18,25.09-19.21,37.86-43.29,44.1-57.9,38.11,.39,76.22,.78,114.33,1.17Z"/></g><g><path class="cls-1" d="M308.27,715.5h58.08v12.2h-43.96v21.13h40.68v11.53h-40.68v23.62h44.75v12.2h-58.87v-80.68Z"/><path class="cls-1" d="M391.55,765.45l-20.23-27.69h15.59l12.2,17.97,12.77-17.97h14.92l-19.89,27.01,22.37,31.41h-15.48l-14.8-21.58-14.35,21.58h-15.14l22.03-30.74Z"/><path class="cls-1" d="M444.77,770.31c0,2.26,.32,4.45,.96,6.55,.64,2.11,1.6,3.96,2.88,5.54,1.28,1.58,2.9,2.84,4.86,3.79,1.96,.94,4.29,1.41,7.01,1.41,3.77,0,6.8-.81,9.1-2.43,2.3-1.62,4.01-4.05,5.14-7.29h12.2c-.68,3.16-1.85,5.99-3.5,8.48-1.66,2.49-3.65,4.58-5.99,6.27-2.34,1.7-4.95,2.98-7.85,3.84-2.9,.86-5.93,1.3-9.1,1.3-4.6,0-8.66-.75-12.2-2.26-3.54-1.51-6.54-3.62-8.98-6.33-2.45-2.71-4.29-5.95-5.54-9.72-1.24-3.77-1.86-7.91-1.86-12.43,0-4.14,.66-8.08,1.98-11.81,1.32-3.73,3.2-7.01,5.65-9.83,2.45-2.83,5.4-5.07,8.87-6.72,3.46-1.66,7.38-2.49,11.75-2.49,4.59,0,8.72,.96,12.37,2.88,3.65,1.92,6.68,4.46,9.1,7.63,2.41,3.16,4.16,6.8,5.25,10.9,1.09,4.11,1.37,8.34,.85,12.71h-42.94Zm30.06-8.48c-.15-2.03-.58-3.99-1.3-5.88-.72-1.88-1.7-3.52-2.94-4.92-1.24-1.39-2.75-2.52-4.52-3.39-1.77-.86-3.75-1.3-5.93-1.3s-4.31,.4-6.16,1.19c-1.85,.79-3.43,1.88-4.75,3.28-1.32,1.4-2.37,3.03-3.16,4.92-.79,1.88-1.23,3.92-1.3,6.1h30.06Z"/><path class="cls-1" d="M535.17,757.31c-.53-3.62-1.98-6.35-4.35-8.19-2.37-1.85-5.37-2.77-8.98-2.77-1.66,0-3.43,.28-5.31,.85-1.88,.56-3.62,1.62-5.2,3.16-1.58,1.54-2.9,3.69-3.96,6.44-1.06,2.75-1.58,6.35-1.58,10.79,0,2.41,.28,4.82,.85,7.23,.56,2.41,1.47,4.56,2.71,6.44,1.24,1.88,2.84,3.41,4.8,4.58,1.96,1.17,4.33,1.75,7.12,1.75,3.77,0,6.87-1.17,9.32-3.5,2.45-2.33,3.97-5.61,4.58-9.83h12.88c-1.21,7.61-4.09,13.43-8.64,17.46-4.56,4.03-10.6,6.05-18.14,6.05-4.6,0-8.64-.77-12.15-2.32-3.5-1.54-6.46-3.65-8.87-6.33-2.41-2.67-4.24-5.86-5.48-9.55-1.24-3.69-1.86-7.68-1.86-11.98s.6-8.48,1.81-12.32c1.2-3.84,3.01-7.18,5.42-10,2.41-2.82,5.4-5.05,8.98-6.67,3.58-1.62,7.78-2.43,12.6-2.43,3.39,0,6.61,.43,9.66,1.3,3.05,.87,5.76,2.17,8.14,3.9,2.37,1.73,4.31,3.92,5.82,6.55,1.51,2.64,2.41,5.76,2.71,9.38h-12.88Z"/><path class="cls-1" d="M608.06,796.19h-12.66v-8.14h-.23c-1.58,2.94-3.94,5.29-7.06,7.06-3.13,1.77-6.31,2.66-9.55,2.66-7.68,0-13.24-1.9-16.67-5.71-3.43-3.8-5.14-9.55-5.14-17.23v-37.06h12.88v35.82c0,5.12,.98,8.74,2.94,10.85,1.96,2.11,4.71,3.16,8.25,3.16,2.71,0,4.97-.41,6.78-1.24,1.81-.83,3.28-1.94,4.41-3.33,1.13-1.39,1.94-3.07,2.43-5.03,.49-1.96,.73-4.07,.73-6.33v-33.9h12.88v58.42Z"/><path class="cls-1" d="M616.75,737.77h9.72v-17.52h12.88v17.52h11.64v9.6h-11.64v31.19c0,1.36,.06,2.52,.17,3.5,.11,.98,.38,1.81,.79,2.49,.41,.68,1.04,1.19,1.87,1.53,.83,.34,1.96,.51,3.39,.51,.9,0,1.81-.02,2.71-.06,.9-.04,1.81-.17,2.71-.4v9.94c-1.43,.15-2.83,.3-4.18,.45-1.36,.15-2.75,.23-4.18,.23-3.39,0-6.12-.32-8.19-.96-2.07-.64-3.69-1.58-4.86-2.83-1.17-1.24-1.96-2.81-2.37-4.69-.42-1.88-.66-4.03-.73-6.44v-34.46h-9.72v-9.6Z"/><path class="cls-1" d="M660.71,715.5h12.88v12.2h-12.88v-12.2Zm0,22.26h12.88v58.42h-12.88v-58.42Z"/><path class="cls-1" d="M680.03,737.77h14.01l14.8,44.86h.23l14.24-44.86h13.33l-20.91,58.42h-14.46l-21.24-58.42Z"/><path class="cls-1" d="M752.69,770.31c0,2.26,.32,4.45,.96,6.55,.64,2.11,1.6,3.96,2.88,5.54,1.28,1.58,2.9,2.84,4.86,3.79,1.96,.94,4.29,1.41,7.01,1.41,3.77,0,6.8-.81,9.1-2.43,2.3-1.62,4.01-4.05,5.14-7.29h12.2c-.68,3.16-1.85,5.99-3.5,8.48-1.66,2.49-3.66,4.58-5.99,6.27-2.34,1.7-4.95,2.98-7.85,3.84-2.9,.86-5.93,1.3-9.1,1.3-4.6,0-8.66-.75-12.2-2.26-3.54-1.51-6.54-3.62-8.98-6.33-2.45-2.71-4.29-5.95-5.54-9.72-1.24-3.77-1.86-7.91-1.86-12.43,0-4.14,.66-8.08,1.98-11.81,1.32-3.73,3.2-7.01,5.65-9.83,2.45-2.83,5.4-5.07,8.87-6.72,3.46-1.66,7.38-2.49,11.75-2.49,4.59,0,8.72,.96,12.37,2.88,3.65,1.92,6.68,4.46,9.1,7.63,2.41,3.16,4.16,6.8,5.25,10.9,1.09,4.11,1.37,8.34,.85,12.71h-42.94Zm30.06-8.48c-.15-2.03-.58-3.99-1.3-5.88-.72-1.88-1.7-3.52-2.94-4.92-1.24-1.39-2.75-2.52-4.52-3.39-1.77-.86-3.75-1.3-5.93-1.3s-4.31,.4-6.16,1.19-3.43,1.88-4.75,3.28c-1.32,1.4-2.37,3.03-3.16,4.92-.79,1.88-1.23,3.92-1.3,6.1h30.06Z"/><path class="cls-1" d="M235.21,815.5h33.45c6.18,0,11.53,1.06,16.05,3.16,4.52,2.11,8.21,4.99,11.07,8.64,2.86,3.65,4.99,7.93,6.38,12.83,1.39,4.9,2.09,10.13,2.09,15.71s-.7,10.81-2.09,15.71c-1.4,4.9-3.52,9.17-6.38,12.83-2.86,3.65-6.55,6.54-11.07,8.64-4.52,2.11-9.87,3.16-16.05,3.16h-33.45v-80.68Zm14.12,69.16h13.9c5.5,0,10-.73,13.5-2.2,3.5-1.47,6.25-3.5,8.25-6.1,2-2.6,3.35-5.65,4.07-9.15,.71-3.5,1.07-7.29,1.07-11.36s-.36-7.85-1.07-11.36c-.72-3.5-2.07-6.55-4.07-9.15-2-2.6-4.75-4.63-8.25-6.1-3.5-1.47-8.01-2.2-13.5-2.2h-13.9v57.63Z"/><path class="cls-1" d="M323.24,870.31c0,2.26,.32,4.45,.96,6.55,.64,2.11,1.6,3.96,2.88,5.54,1.28,1.58,2.9,2.84,4.86,3.79,1.96,.94,4.29,1.41,7.01,1.41,3.77,0,6.8-.81,9.1-2.43,2.3-1.62,4.01-4.05,5.14-7.29h12.2c-.68,3.16-1.85,5.99-3.5,8.48-1.66,2.49-3.65,4.58-5.99,6.27-2.34,1.7-4.95,2.98-7.85,3.84-2.9,.86-5.93,1.3-9.1,1.3-4.6,0-8.66-.75-12.2-2.26-3.54-1.51-6.54-3.62-8.98-6.33-2.45-2.71-4.29-5.95-5.54-9.72-1.24-3.77-1.86-7.91-1.86-12.43,0-4.14,.66-8.08,1.98-11.81,1.32-3.73,3.2-7.01,5.65-9.83,2.45-2.83,5.4-5.07,8.87-6.72,3.46-1.66,7.38-2.49,11.75-2.49,4.59,0,8.72,.96,12.37,2.88,3.65,1.92,6.68,4.46,9.1,7.63,2.41,3.16,4.16,6.8,5.25,10.9,1.09,4.11,1.37,8.34,.85,12.71h-42.94Zm30.06-8.48c-.15-2.03-.58-3.99-1.3-5.88-.72-1.88-1.7-3.52-2.94-4.92-1.24-1.39-2.75-2.52-4.52-3.39-1.77-.86-3.75-1.3-5.93-1.3s-4.31,.4-6.16,1.19c-1.85,.79-3.43,1.88-4.75,3.28-1.32,1.4-2.37,3.03-3.16,4.92-.79,1.88-1.23,3.92-1.3,6.1h30.06Z"/><path class="cls-1" d="M368.44,837.77h14.01l14.8,44.86h.23l14.24-44.86h13.33l-20.9,58.42h-14.46l-21.24-58.42Z"/><path class="cls-1" d="M441.1,870.31c0,2.26,.32,4.45,.96,6.55,.64,2.11,1.6,3.96,2.88,5.54,1.28,1.58,2.9,2.84,4.86,3.79,1.96,.94,4.29,1.41,7.01,1.41,3.77,0,6.8-.81,9.1-2.43,2.3-1.62,4.01-4.05,5.14-7.29h12.2c-.68,3.16-1.85,5.99-3.5,8.48-1.66,2.49-3.65,4.58-5.99,6.27-2.34,1.7-4.95,2.98-7.85,3.84-2.9,.86-5.93,1.3-9.1,1.3-4.6,0-8.66-.75-12.2-2.26-3.54-1.51-6.54-3.62-8.98-6.33-2.45-2.71-4.29-5.95-5.54-9.72-1.24-3.77-1.86-7.91-1.86-12.43,0-4.14,.66-8.08,1.98-11.81,1.32-3.73,3.2-7.01,5.65-9.83,2.45-2.83,5.4-5.07,8.87-6.72,3.46-1.66,7.38-2.49,11.75-2.49,4.59,0,8.72,.96,12.37,2.88,3.65,1.92,6.68,4.46,9.1,7.63,2.41,3.16,4.16,6.8,5.25,10.9,1.09,4.11,1.37,8.34,.85,12.71h-42.94Zm30.06-8.48c-.15-2.03-.58-3.99-1.3-5.88-.72-1.88-1.7-3.52-2.94-4.92-1.24-1.39-2.75-2.52-4.52-3.39-1.77-.86-3.75-1.3-5.93-1.3s-4.31,.4-6.16,1.19c-1.85,.79-3.43,1.88-4.75,3.28-1.32,1.4-2.37,3.03-3.16,4.92-.79,1.88-1.23,3.92-1.3,6.1h30.06Z"/><path class="cls-1" d="M492.4,815.5h12.88v80.68h-12.88v-80.68Z"/><path class="cls-1" d="M544.27,897.77c-4.67,0-8.83-.77-12.49-2.32-3.66-1.54-6.74-3.67-9.27-6.38-2.52-2.71-4.45-5.95-5.76-9.72-1.32-3.77-1.98-7.91-1.98-12.43s.66-8.55,1.98-12.32c1.32-3.77,3.24-7.01,5.76-9.72,2.52-2.71,5.61-4.84,9.27-6.38,3.65-1.54,7.81-2.32,12.49-2.32s8.83,.77,12.49,2.32c3.65,1.54,6.74,3.67,9.27,6.38,2.52,2.71,4.44,5.95,5.76,9.72,1.32,3.77,1.98,7.87,1.98,12.32s-.66,8.66-1.98,12.43c-1.32,3.77-3.24,7.01-5.76,9.72-2.52,2.71-5.61,4.84-9.27,6.38-3.65,1.54-7.82,2.32-12.49,2.32Zm0-10.17c2.86,0,5.35-.6,7.46-1.81,2.11-1.2,3.84-2.79,5.2-4.75,1.36-1.96,2.35-4.16,2.99-6.61,.64-2.45,.96-4.95,.96-7.51s-.32-4.97-.96-7.46c-.64-2.49-1.64-4.69-2.99-6.61-1.36-1.92-3.09-3.48-5.2-4.69-2.11-1.2-4.6-1.81-7.46-1.81s-5.35,.6-7.46,1.81c-2.11,1.21-3.84,2.77-5.2,4.69-1.36,1.92-2.35,4.12-2.99,6.61-.64,2.49-.96,4.97-.96,7.46s.32,5.07,.96,7.51c.64,2.45,1.64,4.65,2.99,6.61,1.36,1.96,3.09,3.54,5.2,4.75,2.11,1.21,4.59,1.81,7.46,1.81Z"/><path class="cls-1" d="M583.03,837.77h12.2v7.91h.23c1.81-3.39,4.33-5.82,7.57-7.29,3.24-1.47,6.74-2.2,10.51-2.2,4.59,0,8.61,.81,12.03,2.43,3.43,1.62,6.27,3.84,8.53,6.67,2.26,2.83,3.96,6.12,5.09,9.89,1.13,3.77,1.7,7.8,1.7,12.09,0,3.92-.51,7.72-1.53,11.41-1.02,3.69-2.56,6.95-4.63,9.77-2.07,2.83-4.69,5.09-7.85,6.78s-6.89,2.54-11.19,2.54c-1.88,0-3.77-.17-5.65-.51-1.88-.34-3.69-.89-5.42-1.64-1.73-.75-3.33-1.71-4.8-2.88-1.47-1.17-2.69-2.54-3.67-4.12h-.23v29.15h-12.88v-80Zm44.97,29.27c0-2.64-.34-5.2-1.02-7.68-.68-2.49-1.7-4.69-3.05-6.61-1.36-1.92-3.05-3.46-5.08-4.63-2.04-1.17-4.37-1.75-7.01-1.75-5.42,0-9.51,1.88-12.26,5.65-2.75,3.77-4.12,8.78-4.12,15.03,0,2.94,.36,5.67,1.07,8.19,.71,2.52,1.79,4.69,3.22,6.5,1.43,1.81,3.14,3.24,5.14,4.29,2,1.06,4.31,1.58,6.95,1.58,2.94,0,5.42-.6,7.46-1.81,2.03-1.2,3.71-2.77,5.03-4.69,1.32-1.92,2.26-4.1,2.82-6.55,.57-2.45,.85-4.95,.85-7.51Z"/><path class="cls-1" d="M649.92,837.77h12.2v8.14h.34c.98-1.43,2.03-2.75,3.16-3.96,1.13-1.2,2.39-2.22,3.79-3.05,1.39-.83,2.99-1.49,4.8-1.98,1.81-.49,3.88-.73,6.21-.73,3.54,0,6.84,.79,9.89,2.37s5.22,4.03,6.5,7.34c2.18-3.01,4.71-5.38,7.57-7.12,2.86-1.73,6.44-2.6,10.74-2.6,6.18,0,10.98,1.51,14.41,4.52,3.43,3.01,5.14,8.06,5.14,15.14v40.34h-12.88v-34.13c0-2.33-.08-4.46-.23-6.38-.15-1.92-.58-3.58-1.3-4.97-.72-1.39-1.79-2.47-3.22-3.22-1.43-.75-3.39-1.13-5.88-1.13-4.37,0-7.53,1.36-9.49,4.07-1.96,2.71-2.94,6.55-2.94,11.53v34.24h-12.88v-37.52c0-4.07-.73-7.14-2.2-9.21-1.47-2.07-4.16-3.11-8.08-3.11-1.66,0-3.26,.34-4.8,1.02-1.54,.68-2.9,1.66-4.07,2.94-1.17,1.28-2.11,2.86-2.82,4.75-.72,1.88-1.07,4.03-1.07,6.44v34.69h-12.88v-58.42Z"/><path class="cls-1" d="M756.48,870.31c0,2.26,.32,4.45,.96,6.55,.64,2.11,1.6,3.96,2.88,5.54,1.28,1.58,2.9,2.84,4.86,3.79,1.96,.94,4.29,1.41,7.01,1.41,3.77,0,6.8-.81,9.1-2.43,2.3-1.62,4.01-4.05,5.14-7.29h12.2c-.68,3.16-1.85,5.99-3.5,8.48-1.66,2.49-3.65,4.58-5.99,6.27-2.34,1.7-4.96,2.98-7.85,3.84-2.9,.86-5.93,1.3-9.1,1.3-4.6,0-8.66-.75-12.2-2.26-3.54-1.51-6.54-3.62-8.98-6.33-2.45-2.71-4.29-5.95-5.54-9.72-1.24-3.77-1.86-7.91-1.86-12.43,0-4.14,.66-8.08,1.98-11.81,1.32-3.73,3.2-7.01,5.65-9.83,2.45-2.83,5.41-5.07,8.87-6.72,3.46-1.66,7.38-2.49,11.75-2.49,4.59,0,8.72,.96,12.37,2.88,3.65,1.92,6.69,4.46,9.1,7.63,2.41,3.16,4.16,6.8,5.25,10.9,1.09,4.11,1.37,8.34,.85,12.71h-42.94Zm30.06-8.48c-.15-2.03-.58-3.99-1.3-5.88-.72-1.88-1.7-3.52-2.94-4.92-1.24-1.39-2.75-2.52-4.52-3.39-1.77-.86-3.75-1.3-5.93-1.3s-4.31,.4-6.16,1.19c-1.85,.79-3.43,1.88-4.75,3.28-1.32,1.4-2.37,3.03-3.16,4.92-.79,1.88-1.23,3.92-1.3,6.1h30.06Z"/><path class="cls-1" d="M807.44,837.77h12.2v8.59l.23,.23c1.96-3.24,4.52-5.78,7.68-7.63,3.16-1.85,6.67-2.77,10.51-2.77,6.4,0,11.45,1.66,15.14,4.97,3.69,3.32,5.54,8.29,5.54,14.92v40.12h-12.88v-36.73c-.15-4.59-1.13-7.93-2.94-10-1.81-2.07-4.63-3.11-8.48-3.11-2.19,0-4.14,.4-5.88,1.19-1.73,.79-3.2,1.88-4.41,3.28-1.21,1.4-2.15,3.03-2.82,4.92-.68,1.88-1.02,3.88-1.02,5.99v34.46h-12.88v-58.42Z"/><path class="cls-1" d="M864.62,837.77h9.72v-17.52h12.88v17.52h11.64v9.6h-11.64v31.19c0,1.36,.06,2.52,.17,3.5,.11,.98,.38,1.81,.79,2.49,.41,.68,1.04,1.19,1.87,1.53,.83,.34,1.96,.51,3.39,.51,.9,0,1.81-.02,2.71-.06,.9-.04,1.81-.17,2.71-.4v9.94c-1.43,.15-2.83,.3-4.18,.45-1.36,.15-2.75,.23-4.18,.23-3.39,0-6.12-.32-8.19-.96-2.07-.64-3.69-1.58-4.86-2.83-1.17-1.24-1.96-2.81-2.37-4.69-.42-1.88-.66-4.03-.73-6.44v-34.46h-9.72v-9.6Z"/></g></svg>