<?xml version="1.0" encoding="UTF-8"?><svg id="Layer_1" xmlns="http://www.w3.org/2000/svg" viewBox="0 0 1882.36 802.46"><defs><style>.cls-1{fill:#010101;}.cls-2{fill:#231f20;}</style></defs><g><path class="cls-1" d="M215.08,417.27c59.18-46.13,118.35-92.27,177.53-138.4,27.14,17.89,54.28,35.78,81.43,53.68,57.57,29.36,115.14,58.73,172.71,88.09-50.39-16.65-90.23-29.53-118.34-38.54-13.03-4.18-31.04-9.85-33.29-5.68-2.4,4.45,14.16,18.32,25.54,26.03,14.91,10.11,29.22,15.29,39.32,18.1-29.87-.81-59.74-1.61-89.61-2.42-2.25-27.6-14.43-41.6-19.49-46.64-30.05-29.94-87.1-21.07-120.49,4.5-18.26,13.98-27.56,31.51-32.09,42.14-27.74-.28-55.48-.57-83.21-.85Z"/><path class="cls-1" d="M551.28,432.34c-58.74,46.69-117.47,93.39-176.21,140.08-27.31-17.63-54.62-35.27-81.93-52.9-57.85-28.82-115.69-57.63-173.54-86.45,50.55,16.17,90.51,28.67,118.7,37.42,13.07,4.05,31.13,9.56,33.34,5.37,2.36-4.48-14.34-18.18-25.79-25.79-15.01-9.97-29.37-15.01-39.49-17.73,29.88,.52,59.75,1.05,89.63,1.57,2.51,27.58,14.82,41.46,19.93,46.45,30.33,29.66,87.29,20.24,120.44-5.64,18.13-14.15,27.26-31.77,31.69-42.45,27.74,.02,55.48,.04,83.22,.06Z"/></g><g><path class="cls-2" d="M746.99,338.15v14.78h-42.22v17.14h38.75v13.66h-38.75v19.6h43.12v14.78h-60.7v-79.97h59.81Z"/><path class="cls-2" d="M750.01,360.21h18.14l10.19,15.12,10.08-15.12h17.58l-19.04,27.1,21.39,30.8h-18.14l-12.1-18.26-12.1,18.26h-17.81l20.83-30.46-19.04-27.44Z"/><path class="cls-2" d="M825.5,404.23c2.39,2.32,5.82,3.47,10.3,3.47,3.21,0,5.97-.8,8.29-2.41,2.31-1.6,3.73-3.3,4.26-5.1h14c-2.24,6.94-5.67,11.91-10.3,14.9-4.63,2.99-10.23,4.48-16.8,4.48-4.55,0-8.66-.73-12.32-2.18-3.66-1.46-6.76-3.53-9.3-6.22-2.54-2.69-4.5-5.9-5.88-9.63-1.38-3.73-2.07-7.84-2.07-12.32s.71-8.36,2.13-12.1c1.42-3.73,3.43-6.96,6.05-9.69,2.61-2.72,5.73-4.87,9.35-6.44,3.62-1.57,7.63-2.35,12.04-2.35,4.93,0,9.22,.95,12.88,2.86,3.66,1.9,6.66,4.46,9.02,7.67,2.35,3.21,4.05,6.87,5.1,10.98,1.04,4.11,1.42,8.4,1.12,12.88h-41.78c.22,5.15,1.53,8.89,3.92,11.2Zm17.98-30.46c-1.9-2.09-4.8-3.14-8.68-3.14-2.54,0-4.65,.43-6.33,1.29-1.68,.86-3.02,1.92-4.03,3.19-1.01,1.27-1.72,2.61-2.13,4.03-.41,1.42-.65,2.69-.73,3.81h25.87c-.75-4.03-2.07-7.09-3.98-9.18Z"/><path class="cls-2" d="M897.73,370.63c-2.54,0-4.67,.58-6.38,1.74-1.72,1.16-3.12,2.65-4.2,4.48-1.08,1.83-1.85,3.85-2.3,6.05-.45,2.2-.67,4.39-.67,6.55s.22,4.22,.67,6.38c.45,2.17,1.18,4.13,2.18,5.88,1.01,1.76,2.37,3.19,4.09,4.31,1.72,1.12,3.81,1.68,6.27,1.68,3.81,0,6.74-1.06,8.79-3.19,2.05-2.13,3.34-4.98,3.86-8.57h15.34c-1.05,7.69-4.03,13.55-8.96,17.58-4.93,4.03-11.24,6.05-18.93,6.05-4.33,0-8.31-.73-11.93-2.18-3.62-1.46-6.7-3.49-9.24-6.1-2.54-2.61-4.52-5.73-5.94-9.35-1.42-3.62-2.13-7.6-2.13-11.93s.65-8.64,1.96-12.49c1.31-3.84,3.23-7.17,5.77-9.97,2.54-2.8,5.64-4.98,9.29-6.55,3.66-1.57,7.84-2.35,12.54-2.35,3.43,0,6.74,.45,9.91,1.34,3.17,.9,6.01,2.26,8.51,4.09,2.5,1.83,4.54,4.11,6.1,6.83,1.57,2.73,2.46,5.96,2.69,9.69h-15.57c-1.05-6.64-4.97-9.97-11.76-9.97Z"/><path class="cls-2" d="M969.75,418.12v-8.06h-.34c-2.02,3.36-4.63,5.79-7.84,7.28-3.21,1.49-6.5,2.24-9.86,2.24-4.26,0-7.75-.56-10.47-1.68-2.73-1.12-4.87-2.71-6.44-4.76-1.57-2.05-2.67-4.55-3.3-7.5-.63-2.95-.95-6.22-.95-9.8v-35.62h15.9v32.7c0,4.78,.74,8.34,2.24,10.7,1.49,2.35,4.14,3.53,7.95,3.53,4.33,0,7.46-1.29,9.41-3.86,1.94-2.58,2.91-6.81,2.91-12.71v-30.35h15.9v57.9h-15.12Z"/><path class="cls-2" d="M1029.44,360.21v10.64h-11.65v28.67c0,2.69,.45,4.48,1.34,5.38s2.69,1.34,5.38,1.34c.9,0,1.75-.04,2.58-.11,.82-.07,1.6-.19,2.35-.34v12.32c-1.34,.22-2.84,.37-4.48,.45-1.64,.07-3.25,.11-4.82,.11-2.46,0-4.8-.17-7-.5-2.2-.34-4.14-.99-5.82-1.96-1.68-.97-3.01-2.35-3.98-4.14-.97-1.79-1.46-4.14-1.46-7.06v-34.16h-9.63v-10.64h9.63v-17.36h15.9v17.36h11.65Z"/><path class="cls-2" d="M1038.4,351.25v-13.1h15.9v13.1h-15.9Zm15.9,8.96v57.9h-15.9v-57.9h15.9Z"/><path class="cls-2" d="M1081.07,418.12l-19.82-57.9h16.69l12.21,39.54h.22l12.21-39.54h15.79l-19.6,57.9h-17.7Z"/><path class="cls-2" d="M1138.19,404.23c2.39,2.32,5.82,3.47,10.3,3.47,3.21,0,5.97-.8,8.29-2.41,2.31-1.6,3.73-3.3,4.26-5.1h14c-2.24,6.94-5.67,11.91-10.3,14.9-4.63,2.99-10.23,4.48-16.8,4.48-4.55,0-8.66-.73-12.32-2.18-3.66-1.46-6.76-3.53-9.3-6.22-2.54-2.69-4.5-5.9-5.88-9.63-1.38-3.73-2.07-7.84-2.07-12.32s.71-8.36,2.13-12.1c1.42-3.73,3.43-6.96,6.05-9.69,2.61-2.72,5.73-4.87,9.35-6.44,3.62-1.57,7.63-2.35,12.04-2.35,4.93,0,9.22,.95,12.88,2.86,3.66,1.9,6.66,4.46,9.02,7.67,2.35,3.21,4.05,6.87,5.1,10.98,1.04,4.11,1.42,8.4,1.12,12.88h-41.78c.22,5.15,1.53,8.89,3.92,11.2Zm17.98-30.46c-1.9-2.09-4.8-3.14-8.68-3.14-2.54,0-4.65,.43-6.33,1.29-1.68,.86-3.02,1.92-4.03,3.19-1.01,1.27-1.72,2.61-2.13,4.03-.41,1.42-.65,2.69-.73,3.81h25.87c-.75-4.03-2.07-7.09-3.98-9.18Z"/><path class="cls-2" d="M721.67,433.15c5.15,0,9.95,.82,14.39,2.46,4.44,1.64,8.29,4.11,11.54,7.39,3.25,3.29,5.79,7.39,7.62,12.32,1.83,4.93,2.74,10.72,2.74,17.36,0,5.82-.75,11.2-2.24,16.13-1.49,4.93-3.75,9.18-6.78,12.77-3.02,3.58-6.8,6.4-11.31,8.46-4.52,2.05-9.84,3.08-15.96,3.08h-34.5v-79.97h34.5Zm-1.23,65.18c2.54,0,5-.41,7.39-1.23,2.39-.82,4.52-2.18,6.38-4.09,1.87-1.9,3.36-4.39,4.48-7.45,1.12-3.06,1.68-6.79,1.68-11.2,0-4.03-.39-7.67-1.18-10.92-.79-3.25-2.07-6.03-3.86-8.34-1.79-2.31-4.16-4.09-7.11-5.32-2.95-1.23-6.59-1.85-10.92-1.85h-12.54v50.4h15.68Z"/><path class="cls-2" d="M781.71,499.23c2.39,2.32,5.82,3.47,10.3,3.47,3.21,0,5.97-.8,8.29-2.41,2.31-1.6,3.73-3.3,4.26-5.1h14c-2.24,6.94-5.68,11.91-10.3,14.9-4.63,2.99-10.23,4.48-16.8,4.48-4.56,0-8.66-.73-12.32-2.18-3.66-1.46-6.76-3.53-9.3-6.22-2.54-2.69-4.5-5.9-5.88-9.63-1.38-3.73-2.07-7.84-2.07-12.32s.71-8.36,2.13-12.1c1.42-3.73,3.43-6.96,6.05-9.69,2.61-2.72,5.73-4.87,9.35-6.44,3.62-1.57,7.63-2.35,12.04-2.35,4.93,0,9.22,.95,12.88,2.86,3.66,1.9,6.66,4.46,9.02,7.67,2.35,3.21,4.05,6.87,5.1,10.98,1.04,4.11,1.42,8.4,1.12,12.88h-41.78c.22,5.15,1.53,8.89,3.92,11.2Zm17.98-30.46c-1.9-2.09-4.8-3.14-8.68-3.14-2.54,0-4.65,.43-6.33,1.29-1.68,.86-3.02,1.92-4.03,3.19-1.01,1.27-1.72,2.61-2.13,4.03-.41,1.42-.65,2.69-.73,3.81h25.87c-.75-4.03-2.07-7.09-3.98-9.18Z"/><path class="cls-2" d="M839.5,513.12l-19.82-57.9h16.69l12.21,39.54h.22l12.21-39.54h15.79l-19.6,57.9h-17.7Z"/><path class="cls-2" d="M896.61,499.23c2.39,2.32,5.82,3.47,10.3,3.47,3.21,0,5.97-.8,8.29-2.41,2.31-1.6,3.73-3.3,4.26-5.1h14c-2.24,6.94-5.67,11.91-10.3,14.9-4.63,2.99-10.23,4.48-16.8,4.48-4.55,0-8.66-.73-12.32-2.18-3.66-1.46-6.76-3.53-9.3-6.22-2.54-2.69-4.5-5.9-5.88-9.63-1.38-3.73-2.07-7.84-2.07-12.32s.71-8.36,2.13-12.1c1.42-3.73,3.43-6.96,6.05-9.69,2.61-2.72,5.73-4.87,9.35-6.44,3.62-1.57,7.63-2.35,12.04-2.35,4.93,0,9.22,.95,12.88,2.86,3.66,1.9,6.66,4.46,9.02,7.67,2.35,3.21,4.05,6.87,5.1,10.98,1.04,4.11,1.42,8.4,1.12,12.88h-41.78c.22,5.15,1.53,8.89,3.92,11.2Zm17.98-30.46c-1.9-2.09-4.8-3.14-8.68-3.14-2.54,0-4.65,.43-6.33,1.29-1.68,.86-3.02,1.92-4.03,3.19-1.01,1.27-1.72,2.61-2.13,4.03-.41,1.42-.65,2.69-.73,3.81h25.87c-.75-4.03-2.07-7.09-3.98-9.18Z"/><path class="cls-2" d="M956.42,433.15v79.97h-15.9v-79.97h15.9Z"/><path class="cls-2" d="M965.49,471.62c1.42-3.77,3.43-6.98,6.05-9.63,2.61-2.65,5.75-4.7,9.41-6.16,3.66-1.46,7.76-2.18,12.32-2.18s8.68,.73,12.38,2.18c3.7,1.46,6.85,3.51,9.46,6.16,2.61,2.65,4.63,5.86,6.05,9.63,1.42,3.77,2.13,7.97,2.13,12.6s-.71,8.81-2.13,12.54c-1.42,3.73-3.44,6.93-6.05,9.58-2.61,2.65-5.77,4.69-9.46,6.1-3.7,1.42-7.82,2.13-12.38,2.13s-8.66-.71-12.32-2.13c-3.66-1.42-6.79-3.45-9.41-6.1-2.62-2.65-4.63-5.84-6.05-9.58-1.42-3.73-2.13-7.91-2.13-12.54s.71-8.83,2.13-12.6Zm14.45,19.38c.45,2.2,1.21,4.18,2.3,5.94,1.08,1.76,2.52,3.16,4.31,4.2,1.79,1.05,4.03,1.57,6.72,1.57s4.95-.52,6.78-1.57c1.83-1.04,3.28-2.44,4.37-4.2,1.08-1.75,1.85-3.73,2.3-5.94,.45-2.2,.67-4.46,.67-6.78s-.22-4.59-.67-6.83c-.45-2.24-1.21-4.22-2.3-5.94-1.08-1.72-2.54-3.12-4.37-4.2-1.83-1.08-4.09-1.62-6.78-1.62s-4.93,.54-6.72,1.62c-1.79,1.08-3.23,2.48-4.31,4.2-1.08,1.72-1.85,3.7-2.3,5.94-.45,2.24-.67,4.52-.67,6.83s.22,4.57,.67,6.78Z"/><path class="cls-2" d="M1044.9,455.21v7.39h.22c1.94-3.14,4.41-5.41,7.39-6.83,2.99-1.42,6.27-2.13,9.86-2.13,4.55,0,8.47,.86,11.76,2.58,3.29,1.72,6.01,4,8.18,6.83,2.17,2.84,3.77,6.14,4.82,9.91,1.04,3.77,1.57,7.71,1.57,11.82,0,3.88-.52,7.62-1.57,11.2-1.05,3.58-2.63,6.76-4.76,9.52-2.13,2.76-4.78,4.97-7.95,6.61-3.18,1.64-6.89,2.46-11.14,2.46-3.58,0-6.89-.73-9.91-2.18s-5.51-3.6-7.45-6.44h-.22v27.44h-15.9v-78.18h15.12Zm20.66,45.92c1.75-1.04,3.17-2.41,4.26-4.09,1.08-1.68,1.85-3.64,2.3-5.88,.45-2.24,.67-4.52,.67-6.83s-.24-4.59-.73-6.83c-.49-2.24-1.29-4.24-2.41-5.99-1.12-1.75-2.56-3.17-4.31-4.26-1.76-1.08-3.9-1.62-6.44-1.62s-4.8,.54-6.55,1.62c-1.76,1.08-3.17,2.48-4.26,4.2-1.08,1.72-1.85,3.7-2.3,5.94-.45,2.24-.67,4.56-.67,6.94s.24,4.59,.73,6.83c.48,2.24,1.27,4.2,2.35,5.88,1.08,1.68,2.52,3.04,4.31,4.09,1.79,1.05,3.96,1.57,6.5,1.57s4.8-.52,6.55-1.57Z"/><path class="cls-2" d="M1109.86,455.21v7.84h.22c2.09-2.99,4.61-5.3,7.56-6.94,2.95-1.64,6.33-2.46,10.14-2.46s7,.71,10.02,2.13c3.02,1.42,5.32,3.92,6.89,7.5,1.72-2.54,4.05-4.78,7-6.72,2.95-1.94,6.44-2.91,10.47-2.91,3.06,0,5.9,.37,8.51,1.12,2.61,.75,4.85,1.94,6.72,3.58,1.87,1.64,3.32,3.79,4.37,6.44,1.04,2.65,1.57,5.84,1.57,9.58v38.75h-15.9v-32.82c0-1.94-.08-3.77-.22-5.49-.15-1.72-.56-3.21-1.23-4.48-.67-1.27-1.66-2.28-2.97-3.02-1.31-.75-3.08-1.12-5.32-1.12s-4.05,.43-5.43,1.29c-1.38,.86-2.46,1.98-3.25,3.36-.78,1.38-1.31,2.95-1.57,4.7-.26,1.76-.39,3.53-.39,5.32v32.26h-15.9v-32.48c0-1.72-.04-3.42-.11-5.1-.08-1.68-.39-3.23-.95-4.65-.56-1.42-1.5-2.56-2.8-3.42-1.31-.86-3.23-1.29-5.77-1.29-.75,0-1.74,.17-2.97,.5s-2.43,.97-3.58,1.9c-1.16,.93-2.15,2.28-2.97,4.03-.82,1.75-1.23,4.05-1.23,6.89v33.6h-15.9v-57.9h15.01Z"/><path class="cls-2" d="M1209.09,499.23c2.39,2.32,5.82,3.47,10.3,3.47,3.21,0,5.97-.8,8.29-2.41,2.31-1.6,3.73-3.3,4.26-5.1h14c-2.24,6.94-5.68,11.91-10.3,14.9-4.63,2.99-10.23,4.48-16.8,4.48-4.56,0-8.66-.73-12.32-2.18-3.66-1.46-6.76-3.53-9.3-6.22-2.54-2.69-4.5-5.9-5.88-9.63-1.38-3.73-2.07-7.84-2.07-12.32s.71-8.36,2.13-12.1c1.42-3.73,3.43-6.96,6.05-9.69,2.61-2.72,5.73-4.87,9.35-6.44,3.62-1.57,7.63-2.35,12.04-2.35,4.93,0,9.22,.95,12.88,2.86,3.66,1.9,6.66,4.46,9.02,7.67,2.35,3.21,4.05,6.87,5.1,10.98,1.04,4.11,1.42,8.4,1.12,12.88h-41.78c.22,5.15,1.53,8.89,3.92,11.2Zm17.98-30.46c-1.9-2.09-4.8-3.14-8.68-3.14-2.54,0-4.65,.43-6.33,1.29-1.68,.86-3.02,1.92-4.03,3.19-1.01,1.27-1.72,2.61-2.13,4.03-.41,1.42-.65,2.69-.73,3.81h25.87c-.75-4.03-2.07-7.09-3.98-9.18Z"/><path class="cls-2" d="M1267.67,455.21v8.06h.34c2.02-3.36,4.63-5.8,7.84-7.34,3.21-1.53,6.5-2.3,9.86-2.3,4.26,0,7.74,.58,10.47,1.74,2.73,1.16,4.87,2.76,6.44,4.82,1.57,2.05,2.67,4.56,3.3,7.5,.63,2.95,.95,6.22,.95,9.8v35.62h-15.9v-32.7c0-4.78-.75-8.34-2.24-10.7-1.49-2.35-4.14-3.53-7.95-3.53-4.33,0-7.47,1.29-9.41,3.86-1.94,2.58-2.91,6.81-2.91,12.71v30.35h-15.9v-57.9h15.12Z"/><path class="cls-2" d="M1346.96,455.21v10.64h-11.65v28.67c0,2.69,.45,4.48,1.34,5.38,.9,.9,2.69,1.34,5.38,1.34,.9,0,1.75-.04,2.58-.11,.82-.07,1.6-.19,2.35-.34v12.32c-1.34,.22-2.84,.37-4.48,.45-1.64,.07-3.25,.11-4.82,.11-2.46,0-4.8-.17-7-.5-2.2-.34-4.14-.99-5.82-1.96-1.68-.97-3.01-2.35-3.98-4.14-.97-1.79-1.46-4.14-1.46-7.06v-34.16h-9.63v-10.64h9.63v-17.36h15.9v17.36h11.65Z"/></g></svg>